<?xml version="1.0" encoding="UTF-8"?>
<svg version="1.1" xmlns="http://www.w3.org/2000/svg" width="1536" height="1024">
<path d="M0 0 C506.88 0 1013.76 0 1536 0 C1536 337.92 1536 675.84 1536 1024 C1029.12 1024 522.24 1024 0 1024 C0 686.08 0 348.16 0 0 Z " fill="#FAF9FA" transform="translate(0,0)"/>
<path d="M0 0 C19.14 0 38.28 0 58 0 C62.49952456 14.62345483 62.49952456 14.62345483 64.19140625 21.10546875 C64.3777211 21.81595871 64.56403595 22.52644867 64.7559967 23.25846863 C65.36082692 25.56745907 65.96173328 27.87744929 66.5625 30.1875 C66.99568616 31.84527884 67.42912329 33.50299211 67.86279297 35.16064453 C68.77550024 38.65055415 69.68672759 42.14084602 70.59716797 45.63134766 C71.99579632 50.98936151 73.40535399 56.34446574 74.81640625 61.69921875 C79.25087607 78.54186289 83.62918991 95.39297728 87.80368042 112.30206299 C89.99511182 121.1655054 92.34865651 129.95853277 94.90991211 138.72167969 C96.68220797 144.80691075 98.32104837 150.91785835 99.875 157.0625 C100.09051514 157.90264648 100.30603027 158.74279297 100.52807617 159.60839844 C100.72248291 160.38860352 100.91688965 161.16880859 101.1171875 161.97265625 C101.28847168 162.65593994 101.45975586 163.33922363 101.63623047 164.04321289 C102 166 102 166 102 170 C102.66 170 103.32 170 104 170 C104.10634766 168.89092285 104.21269531 167.7818457 104.32226562 166.63916016 C104.96701272 161.52004219 106.37166266 156.70784357 107.84375 151.7734375 C108.12856232 150.80105637 108.41337463 149.82867523 108.70681763 148.826828 C109.63188029 145.67441858 110.56578828 142.52470897 111.5 139.375 C112.14548502 137.18234727 112.79050152 134.98955655 113.43505859 132.79663086 C117.13821401 120.21518221 120.88400626 107.64655312 124.67260742 95.09057617 C127.77254481 84.80503365 130.79861063 74.4985355 133.8125 64.1875 C134.06184296 63.33470459 134.31118591 62.48190918 134.56808472 61.60327148 C137.2319685 52.4908509 139.89054901 43.37688961 142.54579163 34.26194763 C143.65737917 30.44733185 144.77039869 26.63313471 145.88363647 22.81900024 C146.67559897 20.10330939 147.46538421 17.38699135 148.25512695 14.6706543 C148.73637641 13.02128821 149.21773435 11.37195377 149.69921875 9.72265625 C149.91842987 8.96636932 150.13764099 8.2100824 150.36349487 7.43087769 C151.88614592 2.22770816 151.88614592 2.22770816 153 0 C167.85 0 182.7 0 198 0 C200.96746579 5.19306513 202.88271299 9.16001551 204.33203125 14.75 C204.52923767 15.47649246 204.72644409 16.20298492 204.92962646 16.95149231 C205.34874798 18.49866243 205.76364433 20.04698251 206.17459106 21.59634399 C207.25776039 25.67775172 208.37312182 29.75038597 209.484375 33.82421875 C209.81176414 35.02929329 209.81176414 35.02929329 210.14576721 36.25871277 C211.8407471 42.47847567 213.65026663 48.65584729 215.5625 54.8125 C222.10694874 75.95729762 228.11404696 97.2648888 234.04931641 118.58740234 C235.72642515 124.60759392 237.40951228 130.62609794 239.09716797 136.64334106 C239.48307733 138.02049724 239.86835782 139.39782984 240.25292969 140.77536011 C242.44737928 148.6356892 244.72746549 156.44975441 247.27661133 164.20410156 C247.98333063 166.93557285 248.14221809 169.19416233 248 172 C248.66 172 249.32 172 250 172 C250.1546875 170.2365625 250.1546875 170.2365625 250.3125 168.4375 C251.66052884 156.47229393 254.70628485 144.7515604 257.74194336 133.12329102 C258.30554706 130.96413657 258.86327797 128.80353611 259.41992188 126.64257812 C261.26406119 119.50984785 263.15958271 112.3930833 265.11355591 105.28964233 C268.90387373 91.5094742 272.43481374 77.66819075 275.9375 63.8125 C278.28532553 54.54005047 280.63811732 45.2688794 283 36 C283.31108704 34.77810974 283.62217407 33.55621948 283.94268799 32.29730225 C284.87597435 28.63862591 285.81420557 24.98125229 286.75390625 21.32421875 C287.03531967 20.21939651 287.31673309 19.11457428 287.60667419 17.97627258 C288.01128624 16.40766731 288.01128624 16.40766731 288.42407227 14.80737305 C288.65667252 13.90037155 288.88927277 12.99337006 289.12892151 12.05888367 C290.28515657 7.99864273 291.66499303 4.0050209 293 0 C311.81 0 330.62 0 350 0 C348.87746514 8.98027886 348.87746514 8.98027886 347.50390625 13.3515625 C347.19767334 14.34808838 346.89144043 15.34461426 346.57592773 16.37133789 C346.24149658 17.44504639 345.90706543 18.51875488 345.5625 19.625 C342.09184484 31.04043231 338.94677136 42.51769489 335.9375 54.0625 C335.72468384 54.87771118 335.51186768 55.69292236 335.29260254 56.53283691 C334.44769223 59.76992257 333.6035633 63.00720974 332.76098633 66.24490356 C328.68932716 81.8884422 324.48414954 97.48135751 319.90551758 112.984375 C313.74381172 133.97305536 308.09720271 155.12135433 302.4375 176.25 C299.69857674 186.47310359 296.89218956 196.67672744 294.0625 206.875 C293.77208328 207.92355164 293.77208328 207.92355164 293.47579956 208.99328613 C289.40370933 223.68738224 285.18912285 238.33807001 281 253 C260.87 253 240.74 253 220 253 C215.38209613 238.5690504 210.87403158 224.28694965 206.87109375 209.703125 C205.07459157 203.22005388 203.18797141 196.76552663 201.2796936 190.3145752 C196.58785685 174.45251602 191.93261512 158.57957912 187.30159473 142.69966412 C186.26946033 139.16073379 185.23563869 135.62231736 184.19760132 132.08511353 C183.20765035 128.71154016 182.22236188 125.33663829 181.24042511 121.96072388 C180.69756226 120.09869353 180.14996001 118.238047 179.60223389 116.37744141 C178.01993019 110.92173047 176.56872467 105.65893917 176 100 C175.34 100 174.68 100 174 100 C173.87431641 101.01602295 173.74863281 102.0320459 173.61914062 103.07885742 C173.03466584 106.78045424 172.18122619 110.15631827 171.09375 113.73828125 C170.89730896 114.3915892 170.70086792 115.04489716 170.49847412 115.71800232 C170.06607943 117.15464001 169.63147757 118.5906148 169.19494629 120.02600098 C167.9571563 124.09855397 166.73790176 128.17667612 165.515625 132.25390625 C165.1092984 133.6069838 165.1092984 133.6069838 164.69476318 134.98739624 C161.20332436 146.62797117 157.78290207 158.28945771 154.36401367 169.95150757 C153.27870547 173.65212194 152.19117257 177.35207735 151.10351562 181.05200195 C147.43530936 193.55072794 143.84163381 206.06639927 140.34988403 218.61558533 C138.37158497 225.7132684 136.31544618 232.77699548 134.125 239.8125 C133.54340861 241.69374408 132.96264249 243.57524354 132.3828125 245.45703125 C132.01760498 246.6322937 132.01760498 246.6322937 131.64501953 247.83129883 C131.03834292 249.87108245 130.51613802 251.93544793 130 254 C110.2 254 90.4 254 70 254 C66.62502911 245.00007763 66.62502911 245.00007763 65.76416016 241.81445312 C65.56559418 241.08722046 65.3670282 240.35998779 65.16244507 239.61071777 C64.95672882 238.84199341 64.75101257 238.07326904 64.5390625 237.28125 C64.31231842 236.44646118 64.08557434 235.61167236 63.85195923 234.75158691 C63.1060565 232.00201437 62.36557503 229.25101182 61.625 226.5 C61.0977029 224.55328457 60.57002606 222.60667196 60.04199219 220.66015625 C58.35630944 214.441456 56.67773389 208.22084868 55 202 C53.02880585 194.69367384 51.0569218 187.3875349 49.08279419 180.08200073 C48.52680103 178.02438393 47.97103589 175.96670551 47.41549683 173.90896606 C43.96653598 161.13978831 40.43630912 148.4023686 36.74731445 135.70019531 C34.12358112 126.59901143 31.76456866 117.43712355 29.4312439 108.25854492 C27.27100701 99.77127249 24.99608302 91.3327704 22.5 82.9375 C19.01476824 71.20818432 15.86425192 59.40066657 12.74072266 47.5705719 C10.18871098 37.91451723 7.59058624 28.27075909 5 18.625 C2.525 9.405625 2.525 9.405625 0 0 Z " fill="#5829A5" transform="translate(362,368)"/>
<path d="M0 0 C1.11696762 0.00222061 2.23393524 0.00444122 3.38475037 0.00672913 C4.64598221 0.00680466 5.90721405 0.00688019 7.20666504 0.00695801 C8.59341979 0.01206542 9.98017414 0.01728142 11.3669281 0.02259827 C12.77797394 0.0244625 14.18902042 0.02588638 15.60006714 0.02688599 C19.3204272 0.03071072 23.04074845 0.04054062 26.76109314 0.05158997 C30.55482966 0.06180504 34.34857243 0.06638381 38.14231873 0.07142639 C45.59090416 0.08216294 53.03945758 0.09923882 60.48802185 0.12025452 C60.91510437 1.2709845 61.34218689 2.42171448 61.7822113 3.60731506 C71.75895353 30.51262298 71.75895353 30.51262298 81.86302185 57.37025452 C82.2814032 58.47377258 82.69978455 59.57729065 83.13084412 60.71424866 C85.57609727 67.14495561 88.04536231 73.56582815 90.53184509 79.98068237 C99.02485959 101.89731033 107.27798211 123.85500898 114.92869568 146.08070374 C119.45678516 159.22879437 124.14922365 172.31035543 128.92552185 185.37025452 C133.32896845 197.41616533 137.71961974 209.45980115 141.87840271 221.59291077 C143.44988776 226.17034636 145.06637812 230.72673436 146.73802185 235.26869202 C147.11378357 236.28979065 147.48954529 237.31088928 147.87669373 238.3629303 C148.59749923 240.31347559 149.32250847 242.26247455 150.05247498 244.20960999 C150.37151794 245.07215393 150.69056091 245.93469788 151.01927185 246.82337952 C151.44562927 247.96274963 151.44562927 247.96274963 151.88059998 249.12513733 C152.48802185 251.12025452 152.48802185 251.12025452 152.48802185 254.12025452 C132.68802185 254.12025452 112.88802185 254.12025452 92.48802185 254.12025452 C89.26961585 246.39608013 86.1417967 238.70785336 83.23802185 230.87025452 C82.46353541 228.78812909 81.68878751 226.7061009 80.9138031 224.62416077 C80.51886658 223.5621344 80.12393005 222.50010803 79.71702576 221.40589905 C78.4594898 218.04397633 77.18506903 214.68887955 75.9059906 211.33509827 C75.28289001 209.69492737 75.28289001 209.69492737 74.64720154 208.0216217 C73.84557455 205.91278523 73.04035407 203.8053105 72.23118591 201.69935608 C71.87121521 200.74899475 71.51124451 199.79863342 71.1403656 198.81947327 C70.82059753 197.98246887 70.50082947 197.14546448 70.17137146 196.28309631 C69.48802185 194.12025452 69.48802185 194.12025452 69.48802185 191.12025452 C58.93475804 191.0506146 48.38154928 190.99737226 37.82810211 190.964818 C32.92722431 190.94919026 28.02650422 190.92800492 23.12571716 190.89393616 C18.39245055 190.86123943 13.65933523 190.84337976 8.92596436 190.83562279 C7.12392802 190.83009776 5.32189957 190.8193088 3.51992798 190.80306435 C0.98762895 190.78115273 -1.54405206 190.77829328 -4.07643127 190.77967834 C-4.81442963 190.76889252 -5.55242798 190.75810669 -6.31278992 190.74699402 C-12.85926172 190.78550932 -18.36138708 192.1608271 -23.32447815 196.68275452 C-27.73650563 202.68967031 -29.51046001 210.78418638 -28.51197815 218.12025452 C-27.2059033 225.00979937 -25.02414411 230.58937524 -19.51197815 235.12025452 C-12.86538721 239.28276601 -5.079338 240.52712613 2.48802185 242.12025452 C2.48802185 235.52025452 2.48802185 228.92025452 2.48802185 222.12025452 C10.92435584 227.43609943 19.24556187 232.90693551 27.53807068 238.4434967 C29.65371183 239.85569624 31.77097019 241.26544496 33.88841248 242.67494202 C43.48233584 249.06950069 53.00367091 255.56439096 62.48802185 262.12025452 C59.40941101 265.28504466 56.31216382 268.16290748 52.79270935 270.82728577 C51.91799988 271.49187805 51.04329041 272.15647034 50.14207458 272.84120178 C49.22498718 273.53141418 48.30789978 274.22162659 47.36302185 274.93275452 C46.41306335 275.65197083 45.46310486 276.37118713 44.48435974 277.11219788 C39.20254024 281.10269435 33.89696466 285.05410343 28.5153656 288.90931702 C25.81953088 290.87814599 23.15317307 292.87853247 20.4919281 294.89369202 C19.58837585 295.57681458 18.68482361 296.25993713 17.75389099 296.96376038 C15.93414874 298.34145737 14.11685447 299.7223948 12.30223083 301.10682678 C11.46635437 301.73903137 10.63047791 302.37123596 9.76927185 303.02259827 C8.6410199 303.88099304 8.6410199 303.88099304 7.48997498 304.75672913 C5.48802185 306.12025452 5.48802185 306.12025452 2.48802185 307.12025452 C2.48802185 301.18025452 2.48802185 295.24025452 2.48802185 289.12025452 C1.10614685 289.22337952 -0.27572815 289.32650452 -1.69947815 289.43275452 C-21.39753602 289.35660223 -41.06713947 281.33962854 -55.51197815 268.12025452 C-56.55225159 267.21726624 -56.55225159 267.21726624 -57.61354065 266.29603577 C-70.98468076 253.98322914 -77.98406998 235.95306926 -78.7658844 218.06947327 C-79.37764682 196.85370035 -73.96380604 177.18156673 -59.51197815 161.12025452 C-59.02857971 160.53373108 -58.54518127 159.94720764 -58.0471344 159.34291077 C-45.98174456 145.80388553 -27.86624069 140.94297164 -10.51197815 139.12025452 C-5.38754495 138.88179705 -0.27316556 138.88423719 4.85520935 138.92494202 C6.27009376 138.92868543 7.68498081 138.93152609 9.09986877 138.93351746 C12.77242048 138.94104962 16.44480671 138.96060454 20.11729431 138.98292542 C23.88537866 139.00361229 27.65349049 139.01256732 31.4216156 139.02259827 C38.7771587 139.04386358 46.13256684 139.07786855 53.48802185 139.12025452 C45.08020345 113.75227132 45.08020345 113.75227132 36.50675964 88.43992615 C35.87224597 86.58472414 35.24187041 84.72810849 34.61155701 82.87147522 C34.22789978 81.75603333 33.84424255 80.64059143 33.44895935 79.49134827 C32.95081726 78.03619812 32.95081726 78.03619812 32.44261169 76.551651 C31.50989836 73.92312488 31.50989836 73.92312488 29.48802185 71.12025452 C24.86802185 84.32025452 20.24802185 97.52025452 15.48802185 111.12025452 C8.55099317 112.38735016 1.61360595 113.65199113 -5.32496643 114.91053772 C-7.68199497 115.33880932 -10.03877056 115.76847562 -12.39527893 116.19960022 C-15.79549088 116.82141488 -19.19660098 117.43809761 -22.59791565 118.05384827 C-23.63999176 118.24555099 -24.68206787 118.43725372 -25.75572205 118.63476562 C-31.99414674 119.75805892 -38.19424129 120.59836399 -44.51197815 121.12025452 C-41.28577822 110.29518414 -37.67460034 99.61611549 -34.01197815 88.93275452 C-33.70617828 88.03863861 -33.40037842 87.14452271 -33.08531189 86.22331238 C-28.42670957 72.60378078 -23.68419703 59.01569424 -18.8662262 45.45179749 C-16.32480822 38.29147144 -13.81434661 31.12198381 -11.35572815 23.93275452 C-11.0992601 23.18316971 -10.84279205 22.4335849 -10.57855225 21.6612854 C-9.34767098 18.06055447 -8.1211125 14.45841256 -6.8999176 10.85438538 C-6.46467003 9.57710421 -6.0293703 8.29984081 -5.5940094 7.02259827 C-5.21478333 5.90361145 -4.83555725 4.78462463 -4.44483948 3.63172913 C-3.1519177 0.15088998 -3.1519177 0.15088998 0 0 Z " fill="#5829A5" transform="translate(769.5119781494141,367.87974548339844)"/>
<path d="M0 0 C135.71202532 0 135.71202532 0 162 26 C178.07601665 44.13965746 182.56471542 66.62885456 181.22753906 90.28173828 C179.24083758 114.01557335 170.33303136 135.27828148 152 151 C123.74484763 172.77601974 90.47806904 170 56 170 C56 197.39 56 224.78 56 253 C37.52 253 19.04 253 0 253 C0 169.51 0 86.02 0 0 Z " fill="#5829A5" transform="translate(939,368)"/>
<path d="M0 0 C11.13107518 10.09645601 21.06745725 23.21822761 24.4375 38.2109375 C23.4375 41.2109375 23.4375 41.2109375 21.14697266 42.43432617 C20.1419873 42.8285376 19.13700195 43.22274902 18.1015625 43.62890625 C16.98265625 44.07516357 15.86375 44.5214209 14.7109375 44.98120117 C13.50695312 45.44888916 12.30296875 45.91657715 11.0625 46.3984375 C8.59590959 47.37648371 6.12976622 48.35565805 3.6640625 49.3359375 C1.82956543 50.06103516 1.82956543 50.06103516 -0.04199219 50.80078125 C-5.70962059 53.07097693 -11.31693199 55.48073615 -16.91162109 57.92456055 C-22.23904266 60.2109375 -22.23904266 60.2109375 -25.5625 60.2109375 C-25.96339844 59.3653125 -26.36429688 58.5196875 -26.77734375 57.6484375 C-33.24776928 44.73693077 -41.42320679 38.30565207 -54.8125 32.8984375 C-66.14997812 30.81989984 -78.0112002 31.56213092 -88.01171875 37.71875 C-93.48623535 42.07002937 -96.78262261 47.37928334 -97.90234375 54.31640625 C-98.1411166 59.25422881 -97.11711898 63.0306519 -94.5625 67.2109375 C-88.86065579 71.92534997 -82.49099445 74.74541422 -75.5625 77.1484375 C-74.14396729 77.65419312 -74.14396729 77.65419312 -72.69677734 78.17016602 C-65.60601401 80.64178695 -58.43533838 82.69452454 -51.1875 84.6484375 C-25.27874367 91.65406858 7.41553225 101.58675871 22.15234375 126.05859375 C31.90878518 144.54573827 33.44933241 167.2354518 27.4375 187.2109375 C24.02394797 197.11595145 19.63662025 205.49759438 12.4375 213.2109375 C11.77234375 213.96632813 11.1071875 214.72171875 10.421875 215.5 C-4.91958387 232.03468344 -28.4855476 241.37160414 -50.75317383 242.35131836 C-82.25515199 243.22935362 -111.44694708 239.07503685 -135.9375 217.7109375 C-137.49747188 216.2299838 -139.04019387 214.73058225 -140.5625 213.2109375 C-141.25859375 212.52644531 -141.9546875 211.84195313 -142.671875 211.13671875 C-150.73960596 202.67810935 -162.5625 185.3986306 -162.5625 173.2109375 C-152.78697272 168.9925095 -142.98259039 164.84789654 -133.14477539 160.77685547 C-131.61098417 160.14103409 -130.07812776 159.50295367 -128.54614258 158.86279297 C-126.29975517 157.92429381 -124.05063868 156.99264431 -121.80078125 156.0625 C-121.11647537 155.77508942 -120.43216949 155.48767883 -119.72712708 155.19155884 C-116.8362542 154.00423073 -114.72106355 153.2109375 -111.5625 153.2109375 C-111.05460937 154.273125 -110.54671875 155.3353125 -110.0234375 156.4296875 C-102.89936277 171.1404844 -96.48647021 180.99043973 -80.71484375 187.17578125 C-65.25614859 192.25205661 -49.65803202 191.2117889 -35.15625 183.94140625 C-30.24697372 180.6660909 -27.09437072 175.89759427 -25.5625 170.2109375 C-24.77154036 164.37880136 -25.1309256 159.15955967 -28.13671875 154.015625 C-37.96163044 141.57970938 -59.57772401 138.68315607 -74.05151367 134.53027344 C-90.00634949 129.95230739 -104.94377493 125.17109069 -119.5625 117.2109375 C-120.49707031 116.71851563 -121.43164062 116.22609375 -122.39453125 115.71875 C-139.11516748 106.39732445 -147.42741859 93.05640637 -152.5625 75.2109375 C-152.83187378 74.31918823 -152.83187378 74.31918823 -153.10668945 73.40942383 C-154.09324008 68.6510476 -153.82896388 63.70271419 -153.85766602 58.86083984 C-153.87464814 56.87704125 -153.91848672 54.89353054 -153.96289062 52.91015625 C-154.07551591 35.56586197 -148.2480591 18.86197598 -136.90234375 5.578125 C-123.73438419 -7.74371722 -107.57345728 -15.43757799 -89.5625 -19.7890625 C-88.12777344 -20.15837891 -88.12777344 -20.15837891 -86.6640625 -20.53515625 C-57.05297115 -26.83076951 -23.22660876 -19.42995156 0 0 Z " fill="#5829A5" transform="translate(326.5625,384.7890625)"/>
<path d="M0 0 C2.48663229 2.20521379 4.84488749 4.4281393 7.10546875 6.8671875 C7.69714844 7.4653125 8.28882813 8.0634375 8.8984375 8.6796875 C16.79086898 16.98429626 24.29830314 28.6164214 27.10546875 39.8671875 C26.10546875 42.8671875 26.10546875 42.8671875 23.87158203 44.04638672 C22.41341064 44.60350342 22.41341064 44.60350342 20.92578125 45.171875 C19.31316406 45.80029297 19.31316406 45.80029297 17.66796875 46.44140625 C15.96640625 47.08529297 15.96640625 47.08529297 14.23046875 47.7421875 C6.92156218 50.55396685 -0.31039514 53.41686998 -7.41259766 56.72167969 C-19.1203377 62.12525202 -19.1203377 62.12525202 -22.89453125 60.8671875 C-24.54296875 58.3203125 -24.54296875 58.3203125 -26.26953125 55.1171875 C-28.76685556 50.7064644 -30.95387631 47.13504769 -34.89453125 43.8671875 C-35.73564453 43.13435547 -35.73564453 43.13435547 -36.59375 42.38671875 C-45.62440928 34.96802299 -57.31167285 31.75284746 -68.89453125 32.8671875 C-77.82237107 34.74053518 -86.21040261 37.40420263 -91.48828125 45.23046875 C-94.99015405 51.64084145 -95.46946648 56.22593102 -94.33203125 63.4296875 C-91.63065362 69.88950357 -86.85141344 72.63683243 -80.58203125 75.3671875 C-69.16728828 79.79532055 -57.50774538 83.41978631 -45.75634766 86.83520508 C-20.814403 94.08720673 10.30321065 103.44729468 24.01953125 127.62109375 C34.20106125 148.68001371 34.17645251 170.39241313 26.79296875 192.3046875 C18.62475912 213.51294692 1.77184615 227.65798334 -18.45703125 237.1171875 C-45.60262314 247.9992101 -78.42529325 247.11115317 -105.51953125 236.4921875 C-107.32591369 235.64798555 -109.11789454 234.77231537 -110.89453125 233.8671875 C-111.95542969 233.35414063 -113.01632812 232.84109375 -114.109375 232.3125 C-121.8835053 228.37554253 -128.42848506 223.69058384 -134.89453125 217.8671875 C-136.06628906 216.83658203 -136.06628906 216.83658203 -137.26171875 215.78515625 C-148.47366237 205.32972786 -157.39122554 189.85036765 -160.89453125 174.8671875 C-151.87838308 170.60731075 -142.66585559 166.86398447 -133.42138672 163.13623047 C-130.8710256 162.10770802 -128.32213078 161.07561634 -125.7734375 160.04296875 C-124.14721844 159.38521137 -122.5209193 158.72765193 -120.89453125 158.0703125 C-119.75552368 157.6094223 -119.75552368 157.6094223 -118.59350586 157.13922119 C-115.71113002 155.97775647 -112.8434696 154.85016695 -109.89453125 153.8671875 C-109.62302246 154.40609619 -109.35151367 154.94500488 -109.07177734 155.50024414 C-107.81431419 157.98191127 -106.54206699 160.4557176 -105.26953125 162.9296875 C-104.84285156 163.77724609 -104.41617187 164.62480469 -103.9765625 165.49804688 C-97.59421901 177.834069 -89.55103083 184.59938028 -76.375 189.10546875 C-63.82998316 192.9578755 -48.76233712 192.49181536 -36.69140625 187.3515625 C-31.13449797 184.40236537 -26.5252804 181.1626898 -24.33203125 174.98046875 C-22.9119395 168.12091842 -22.76383265 160.72884165 -26.48046875 154.59765625 C-36.27532073 142.6111385 -57.18341257 139.42831119 -71.26953125 135.4296875 C-128.12486953 119.27816648 -128.12486953 119.27816648 -142.83984375 94.60546875 C-153.25884637 75.3639885 -154.03670485 53.45935471 -148.31982422 32.61401367 C-142.59642773 13.38020913 -129.478459 0.82852252 -112.58203125 -9.07421875 C-78.74222038 -27.20828406 -29.85649704 -25.15730275 0 0 Z " fill="#5829A5" transform="translate(1288.89453125,383.1328125)"/>
<path d="M0 0 C6.496875 -0.061875 12.99375 -0.12375 19.6875 -0.1875 C21.70963623 -0.21481201 23.73177246 -0.24212402 25.81518555 -0.27026367 C39.22237684 -0.37609903 53.18988988 -0.41700809 63.48828125 9.421875 C68.73734338 15.67739447 70.66446851 25.76655768 70.2890625 33.76953125 C68.95790452 44.04103401 67.45206142 53.15902276 58.87158203 59.84521484 C51.37609831 64.47000456 43.32025696 65.62158847 34.6875 65.75 C33.77677734 65.77964844 32.86605469 65.80929687 31.92773438 65.83984375 C21.29173308 66.13904807 10.63332906 66 0 66 C0 44.22 0 22.44 0 0 Z " fill="#FAF9FA" transform="translate(995,419)"/>
<path d="M0 0 C0.66 0 1.32 0 2 0 C2.66 3.3 3.32 6.6 4 10 C2.35 9.67 0.7 9.34 -1 9 C-1.33 9.66 -1.66 10.32 -2 11 C-1 3.57142857 -1 3.57142857 0 0 Z " fill="#F4EFF8" transform="translate(536,468)"/>
<path d="M0 0 C1.31625194 2.63250388 0.74813658 3.80179056 0.0625 6.625 C-0.13214844 7.44226563 -0.32679688 8.25953125 -0.52734375 9.1015625 C-0.68332031 9.72804688 -0.83929687 10.35453125 -1 11 C-1.66 11 -2.32 11 -3 11 C-3.33 8.36 -3.66 5.72 -4 3 C-2.68 2.01 -1.36 1.02 0 0 Z " fill="#ECE7F4" transform="translate(613,529)"/>
<path d="M0 0 C2.64 0.33 5.28 0.66 8 1 C8 1.66 8 2.32 8 3 C5.39417629 3.93065133 4.35801776 4.14917407 1.75 3.0625 C1.1725 2.711875 0.595 2.36125 0 2 C0 1.34 0 0.68 0 0 Z " fill="#F0ECF4" transform="translate(234,624)"/>
<path d="M0 0 C0.83583327 2.37607949 1.1842383 3.54449627 0.22265625 5.921875 C-0.8515625 7.61458333 -1.92578125 9.30729167 -3 11 C-4 8 -4 8 -3.22265625 5.95703125 C-2.83980469 5.24933594 -2.45695312 4.54164063 -2.0625 3.8125 C-1.68222656 3.09707031 -1.30195312 2.38164062 -0.91015625 1.64453125 C-0.60980469 1.10183594 -0.30945312 0.55914062 0 0 Z " fill="#421999" transform="translate(1146,403)"/>
</svg>
